Coordinates
version=1
nRows=5
nColumns=46
inDegrees=yes

Units are S.I. units (second, meters, Newtons, ...)
Angles are in degrees.

endheader
time	pelvis_tilt	pelvis_list	pelvis_rotation	pelvis_tx	pelvis_ty	pelvis_tz	bb_angle	bb_tx	bb_ty	bb_tz	hip_flexion_r	hip_adduction_r	hip_rotation_r	knee_angle_r	knee_angle_r_beta	ankle_angle_r	subtalar_angle_r	mtp_angle_r	crank_angle_r	hip_flexion_l	hip_adduction_l	hip_rotation_l	knee_angle_l	knee_angle_l_beta	ankle_angle_l	subtalar_angle_l	mtp_angle_l	crank_angle_l	lumbar_extension	lumbar_bending	lumbar_rotation	arm_flex_r	arm_add_r	arm_rot_r	elbow_flex_r	pro_sup_r	wrist_flex_r	wrist_dev_r	arm_flex_l	arm_add_l	arm_rot_l	elbow_flex_l	pro_sup_l	wrist_flex_l	wrist_dev_l
      7.50000000	    -12.44424407	     -1.81763262	      0.79763569	      0.05566906	      1.10951719	     -0.28070995	      0.00000000	      0.50000000	      0.00000000	      0.25000000	     55.94619041	     -1.27088924	      2.50250064	     48.47277969	      0.84600960	     -4.08988691	    -15.45146711	      0.00000000	      0.00000000	     69.26240443	     -4.34409346	      5.72263685	     99.58042594	      1.73800630	    -20.31407929	    -16.21765482	      0.00000000	      0.00000000	    -62.43268030	     -1.24390227	     -2.96702953	     89.70463300	    -13.75282718	     30.54357247	     50.70368644	     30.37039690	      0.00000000	      0.00000000	     89.58576826	    -24.22527478	     35.68406840	     58.61096016	     35.07737290	      0.00000000	      0.00000000
      7.50500000	    -12.26304845	     -1.34356446	      1.40207044	      0.05651613	      1.11047851	     -0.27996689	      0.00000000	      0.50000000	      0.00000000	      0.25000000	     53.97154621	     -2.13609604	      2.08208255	     45.87176154	      0.80061327	     -5.02117932	    -14.69647309	      0.00000000	      0.00000000	     70.29203818	     -3.87753932	      5.57265599	    101.12725407	      1.76500355	    -19.67495621	    -15.49834381	      0.00000000	      0.00000000	    -62.87432366	     -1.32182009	     -3.60912070	     89.69119219	    -13.91447312	     29.77016178	     51.17392485	     31.24465168	      0.00000000	      0.00000000	     89.57283658	    -24.05440220	     34.77842465	     59.52888405	     35.70624755	      0.00000000	      0.00000000
      7.51000000	    -12.46591888	     -0.86712116	      1.90270622	      0.05720926	      1.11063845	     -0.27908900	      0.00000000	      0.50000000	      0.00000000	      0.25000000	     52.49608948	     -2.86649367	      1.91780285	     43.50891181	      0.75937376	     -6.15686769	    -14.20205319	      0.00000000	      0.00000000	     71.81323793	     -3.49424862	      5.36383856	    102.68991286	      1.79227709	    -19.18691765	    -15.04673217	      0.00000000	      0.00000000	    -62.62220304	     -1.49415833	     -4.37769006	     89.69280381	    -13.85958685	     30.48414966	     50.15818748	     30.97177513	      0.00000000	      0.00000000	     89.59556767	    -24.07439570	     35.48299853	     59.28669789	     35.57100491	      0.00000000	      0.00000000
      7.51500000	    -12.63037636	     -0.37050254	      2.38035763	      0.05781849	      1.11102629	     -0.27816993	      0.00000000	      0.50000000	      0.00000000	      0.25000000	     50.96317550	     -3.63154617	      1.61744639	     41.10391049	      0.71739857	     -7.22940603	    -13.38943834	      0.00000000	      0.00000000	     73.29964753	     -3.17325224	      5.08410872	    104.12927472	      1.81739869	    -18.83144044	    -14.60861622	      0.00000000	      0.00000000	    -62.51460534	     -1.72003783	     -5.08639577	     89.68721041	    -13.97129012	     30.59690400	     49.87914445	     30.85118908	      0.00000000	      0.00000000	     89.60709408	    -23.95757366	     35.58603162	     59.37647376	     35.50467414	      0.00000000	      0.00000000
      7.52000000	    -12.87268940	      0.18864259	      2.83293451	      0.05842987	      1.11150862	     -0.27727307	      0.00000000	      0.50000000	      0.00000000	      0.25000000	     49.51389605	     -4.41190372	      1.37469608	     38.72484106	      0.67587598	     -8.35311751	    -12.56684338	      0.00000000	      0.00000000	     74.82575462	     -2.83419040	      4.74378690	    105.45922956	      1.84061078	    -18.35727935	    -14.11931833	      0.00000000	      0.00000000	    -62.38284930	     -1.97728067	     -5.79461739	     89.68157129	    -14.07334845	     30.67265890	     49.64721277	     30.76546295	      0.00000000	      0.00000000	     89.61463212	    -23.78404965	     35.61249112	     59.49367811	     35.46130134	      0.00000000	      0.00000000
